# File produced by Open Asset Import Library (http://www.assimp.sf.net)
# (assimp v4.1.3154142419)

mtllib EmptyCircle.mtl

# 72 vertex positions
v  2.495948314666748 0 0.949999988079071
v  2.495948314666748 0 0.8500000238418579
v  2.34542441368103 0.8536646962165833 0.8500000238418579
v  2.34542441368103 0.8536646962165833 0.949999988079071
v  1.912007570266724 1.60436475276947 0.949999988079071
v  1.912007570266724 1.60436475276947 0.8500000238418579
v  1.247974157333374 2.16155481338501 0.949999988079071
v  1.247974157333374 2.16155481338501 0.8500000238418579
v  0.4334169030189514 2.458029270172119 0.949999988079071
v  0.4334169030189514 2.458029270172119 0.8500000238418579
v  -0.4334169030189514 2.458029270172119 0.949999988079071
v  -0.4334169030189514 2.458029270172119 0.8500000238418579
v  -1.247974157333374 2.16155481338501 0.949999988079071
v  -1.247974157333374 2.16155481338501 0.8500000238418579
v  -1.912007570266724 1.60436475276947 0.949999988079071
v  -1.912007570266724 1.60436475276947 0.8500000238418579
v  -2.34542441368103 0.8536646962165833 0.949999988079071
v  -2.34542441368103 0.8536646962165833 0.8500000238418579
v  -2.495948314666748 0 0.949999988079071
v  -2.495948314666748 0 0.8500000238418579
v  -2.34542441368103 -0.8536646962165833 0.949999988079071
v  -2.34542441368103 -0.8536646962165833 0.8500000238418579
v  -1.912007570266724 -1.60436475276947 0.949999988079071
v  -1.912007570266724 -1.60436475276947 0.8500000238418579
v  -1.247974157333374 -2.16155481338501 0.949999988079071
v  -1.247974157333374 -2.16155481338501 0.8500000238418579
v  -0.4334169030189514 -2.458029270172119 0.949999988079071
v  -0.4334169030189514 -2.458029270172119 0.8500000238418579
v  0.4334169030189514 -2.458029270172119 0.949999988079071
v  0.4334169030189514 -2.458029270172119 0.8500000238418579
v  1.247974157333374 -2.16155481338501 0.949999988079071
v  1.247974157333374 -2.16155481338501 0.8500000238418579
v  1.912007570266724 -1.60436475276947 0.8500000238418579
v  1.912007570266724 -1.60436475276947 0.949999988079071
v  2.34542441368103 -0.8536646962165833 0.8500000238418579
v  2.34542441368103 -0.8536646962165833 0.949999988079071
v  2.309085845947266 0 0.949999988079071
v  2.169830799102783 0.7897539138793945 0.8500000238418579
v  2.309085845947266 0 0.8500000238418579
v  2.169830799102783 0.7897539138793945 0.949999988079071
v  1.768862366676331 1.484251737594604 0.949999988079071
v  1.768862366676331 1.484251737594604 0.8500000238418579
v  1.154542922973633 1.999726891517639 0.949999988079071
v  1.154542922973633 1.999726891517639 0.8500000238418579
v  0.400968611240387 2.27400541305542 0.949999988079071
v  0.400968611240387 2.27400541305542 0.8500000238418579
v  -0.400968611240387 2.27400541305542 0.949999988079071
v  -0.400968611240387 2.27400541305542 0.8500000238418579
v  -1.154542922973633 1.999726891517639 0.949999988079071
v  -1.154542922973633 1.999726891517639 0.8500000238418579
v  -1.768862366676331 1.484251737594604 0.949999988079071
v  -1.768862366676331 1.484251737594604 0.8500000238418579
v  -2.169830799102783 0.7897539138793945 0.949999988079071
v  -2.169830799102783 0.7897539138793945 0.8500000238418579
v  -2.309085845947266 0 0.949999988079071
v  -2.309085845947266 0 0.8500000238418579
v  -2.169830799102783 -0.7897539138793945 0.949999988079071
v  -2.169830799102783 -0.7897539138793945 0.8500000238418579
v  -1.768862366676331 -1.484251737594604 0.949999988079071
v  -1.768862366676331 -1.484251737594604 0.8500000238418579
v  -1.154542922973633 -1.999726891517639 0.949999988079071
v  -1.154542922973633 -1.999726891517639 0.8500000238418579
v  -0.400968611240387 -2.27400541305542 0.949999988079071
v  -0.400968611240387 -2.27400541305542 0.8500000238418579
v  0.400968611240387 -2.27400541305542 0.949999988079071
v  0.400968611240387 -2.27400541305542 0.8500000238418579
v  1.154542922973633 -1.999726891517639 0.949999988079071
v  1.154542922973633 -1.999726891517639 0.8500000238418579
v  1.768862366676331 -1.484251737594604 0.8500000238418579
v  1.768862366676331 -1.484251737594604 0.949999988079071
v  2.169830799102783 -0.7897539138793945 0.8500000238418579
v  2.169830799102783 -0.7897539138793945 0.949999988079071

# 0 UV coordinates

# 36 vertex normals
vn 0.9848077893257141 0.1736479848623276 0
vn 0.8660253882408142 0.5000000596046448 0
vn 0.6427875161170959 0.766044557094574 0
vn 0.342020183801651 0.9396926164627075 0
vn 0 1 0
vn -0.342020183801651 0.9396926164627075 0
vn -0.6427875161170959 0.766044557094574 0
vn -0.8660253882408142 0.5000000596046448 0
vn -0.9848077893257141 0.1736479848623276 0
vn -0.9848077893257141 -0.1736479848623276 0
vn -0.8660253882408142 -0.5000000596046448 0
vn -0.6427875161170959 -0.766044557094574 0
vn -0.342020183801651 -0.9396926164627075 0
vn 0 -1 0
vn 0.342020183801651 -0.9396926164627075 0
vn 0.6427875161170959 -0.766044557094574 0
vn 0.8660253882408142 -0.5000000596046448 0
vn 0.9848077893257141 -0.1736479848623276 0
vn -0.9848077297210693 -0.1736482083797455 0
vn -0.8660253882408142 -0.5 0
vn -0.6427875161170959 -0.7660444974899292 0
vn -0.3420201539993286 -0.9396926164627075 0
vn 0.3420201539993286 -0.9396926164627075 0
vn 0.6427875161170959 -0.7660444974899292 0
vn 0.8660253882408142 -0.5 0
vn 0.9848077297210693 -0.1736482083797455 0
vn 0.9848077297210693 0.1736482083797455 0
vn 0.8660253882408142 0.5 0
vn 0.6427875161170959 0.7660444974899292 0
vn 0.3420201539993286 0.9396926164627075 0
vn -0.3420201539993286 0.9396926164627075 0
vn -0.6427875161170959 0.7660444974899292 0
vn -0.8660253882408142 0.5 0
vn -0.9848077297210693 0.1736482083797455 0
vn 0 0 -1
vn 0 0 1

# Mesh '' with 144 faces
usemtl $Material_0
f  1//1 2//1 3//1
f  4//1 1//1 3//1
f  5//2 4//2 6//2
f  6//2 4//2 3//2
f  7//3 5//3 8//3
f  8//3 5//3 6//3
f  9//4 7//4 10//4
f  10//4 7//4 8//4
f  11//5 9//5 12//5
f  12//5 9//5 10//5
f  13//6 11//6 14//6
f  14//6 11//6 12//6
f  15//7 13//7 16//7
f  16//7 13//7 14//7
f  17//8 15//8 18//8
f  19//9 17//9 18//9
f  18//8 15//8 16//8
f  20//9 19//9 18//9
f  21//10 19//10 22//10
f  22//10 19//10 20//10
f  23//11 21//11 24//11
f  24//11 21//11 22//11
f  25//12 23//12 26//12
f  26//12 23//12 24//12
f  27//13 25//13 28//13
f  28//13 25//13 26//13
f  29//14 27//14 30//14
f  31//15 29//15 30//15
f  30//14 27//14 28//14
f  32//15 31//15 30//15
f  33//16 31//16 32//16
f  34//16 31//16 33//16
f  35//17 34//17 33//17
f  36//17 34//17 35//17
f  36//18 35//18 1//18
f  35//18 2//18 1//18
f  37//19 38//19 39//19
f  40//19 38//19 37//19
f  41//20 42//20 40//20
f  42//20 38//20 40//20
f  43//21 44//21 41//21
f  44//21 42//21 41//21
f  45//22 46//22 43//22
f  46//22 44//22 43//22
f  47//14 48//14 45//14
f  48//14 46//14 45//14
f  49//23 50//23 47//23
f  50//23 48//23 47//23
f  51//24 52//24 49//24
f  52//24 50//24 49//24
f  53//25 54//25 51//25
f  55//26 54//26 53//26
f  54//25 52//25 51//25
f  56//26 54//26 55//26
f  57//27 58//27 55//27
f  58//27 56//27 55//27
f  59//28 60//28 57//28
f  60//28 58//28 57//28
f  61//29 62//29 59//29
f  62//29 60//29 59//29
f  63//30 64//30 61//30
f  64//30 62//30 61//30
f  65//5 66//5 63//5
f  67//31 66//31 65//31
f  66//5 64//5 63//5
f  68//31 66//31 67//31
f  69//32 68//32 67//32
f  70//32 69//32 67//32
f  71//33 69//33 70//33
f  72//33 71//33 70//33
f  72//34 37//34 71//34
f  71//34 37//34 39//34
f  62//35 26//35 24//35
f  62//35 24//35 60//35
f  24//35 22//35 58//35
f  60//35 24//35 58//35
f  28//35 26//35 62//35
f  64//35 28//35 62//35
f  22//35 20//35 56//35
f  58//35 22//35 56//35
f  66//35 30//35 28//35
f  66//35 28//35 64//35
f  56//35 20//35 18//35
f  56//35 18//35 54//35
f  68//35 32//35 30//35
f  68//35 30//35 66//35
f  18//35 16//35 52//35
f  54//35 18//35 52//35
f  69//35 32//35 68//35
f  69//35 33//35 32//35
f  52//35 16//35 50//35
f  16//35 14//35 50//35
f  71//35 33//35 69//35
f  71//35 35//35 33//35
f  50//35 14//35 48//35
f  14//35 12//35 48//35
f  71//35 39//35 35//35
f  35//35 39//35 2//35
f  48//35 10//35 46//35
f  48//35 12//35 10//35
f  39//35 38//35 3//35
f  39//35 3//35 2//35
f  46//35 8//35 44//35
f  46//35 10//35 8//35
f  44//35 8//35 6//35
f  42//35 6//35 38//35
f  44//35 6//35 42//35
f  6//35 3//35 38//35
f  61//36 23//36 25//36
f  61//36 59//36 23//36
f  23//36 57//36 21//36
f  59//36 57//36 23//36
f  27//36 61//36 25//36
f  63//36 61//36 27//36
f  21//36 55//36 19//36
f  57//36 55//36 21//36
f  65//36 27//36 29//36
f  65//36 63//36 27//36
f  55//36 17//36 19//36
f  55//36 53//36 17//36
f  67//36 29//36 31//36
f  67//36 65//36 29//36
f  17//36 51//36 15//36
f  53//36 51//36 17//36
f  70//36 67//36 31//36
f  70//36 31//36 34//36
f  51//36 49//36 15//36
f  15//36 49//36 13//36
f  72//36 70//36 34//36
f  72//36 34//36 36//36
f  49//36 47//36 13//36
f  13//36 47//36 11//36
f  72//36 36//36 37//36
f  36//36 1//36 37//36
f  47//36 45//36 9//36
f  47//36 9//36 11//36
f  40//36 37//36 4//36
f  4//36 37//36 1//36
f  45//36 43//36 7//36
f  45//36 7//36 9//36
f  43//36 5//36 7//36
f  41//36 40//36 5//36
f  43//36 41//36 5//36
f  5//36 40//36 4//36

